<svg width="120" height="123" viewBox="0 0 120 123" fill="none" xmlns="http://www.w3.org/2000/svg">
<path d="M40.3333 108.556V68.2222C40.3333 64.6565 38.952 61.2369 36.4932 58.7156C34.0344 56.1942 30.6995 54.7778 27.2222 54.7778H14.1111C10.6338 54.7778 7.29896 56.1942 4.84015 58.7156C2.38134 61.2369 1 64.6565 1 68.2222V108.556C1 112.121 2.38134 115.541 4.84015 118.062C7.29896 120.584 10.6338 122 14.1111 122H27.2222C30.6995 122 34.0344 120.584 36.4932 118.062C38.952 115.541 40.3333 112.121 40.3333 108.556ZM40.3333 108.556V41.3333C40.3333 37.7676 41.7147 34.348 44.1735 31.8267C46.6323 29.3054 49.9672 27.8889 53.4444 27.8889H66.5556C70.0328 27.8889 73.3677 29.3054 75.8265 31.8267C78.2853 34.348 79.6667 37.7676 79.6667 41.3333V108.556M40.3333 108.556C40.3333 112.121 41.7147 115.541 44.1735 118.062C46.6323 120.584 49.9672 122 53.4444 122H66.5556C70.0328 122 73.3677 120.584 75.8265 118.062C78.2853 115.541 79.6667 112.121 79.6667 108.556M79.6667 108.556V14.4444C79.6667 10.8788 81.048 7.45911 83.5068 4.93779C85.9656 2.41646 89.3005 1 92.7778 1H105.889C109.366 1 112.701 2.41646 115.16 4.93779C117.619 7.45911 119 10.8788 119 14.4444V108.556C119 112.121 117.619 115.541 115.16 118.062C112.701 120.584 109.366 122 105.889 122H92.7778C89.3005 122 85.9656 120.584 83.5068 118.062C81.048 115.541 79.6667 112.121 79.6667 108.556Z" stroke="white" stroke-width="2" stroke-linecap="round" stroke-linejoin="round"/>
</svg>
