<svg width="22" height="22" viewBox="0 0 22 22" fill="none" xmlns="http://www.w3.org/2000/svg">
<path d="M7.66667 18.7778V12.1111C7.66667 11.5217 7.43254 10.9565 7.01579 10.5398C6.59905 10.123 6.03381 9.88889 5.44444 9.88889H3.22222C2.63285 9.88889 2.06762 10.123 1.65087 10.5398C1.23413 10.9565 1 11.5217 1 12.1111V18.7778C1 19.3671 1.23413 19.9324 1.65087 20.3491C2.06762 20.7659 2.63285 21 3.22222 21H5.44444C6.03381 21 6.59905 20.7659 7.01579 20.3491C7.43254 19.9324 7.66667 19.3671 7.66667 18.7778ZM7.66667 18.7778V7.66667C7.66667 7.0773 7.90079 6.51207 8.31754 6.09532C8.73429 5.67857 9.29952 5.44444 9.88889 5.44444H12.1111C12.7005 5.44444 13.2657 5.67857 13.6825 6.09532C14.0992 6.51207 14.3333 7.0773 14.3333 7.66667V18.7778M7.66667 18.7778C7.66667 19.3671 7.90079 19.9324 8.31754 20.3491C8.73429 20.7659 9.29952 21 9.88889 21H12.1111C12.7005 21 13.2657 20.7659 13.6825 20.3491C14.0992 19.9324 14.3333 19.3671 14.3333 18.7778M14.3333 18.7778V3.22222C14.3333 2.63285 14.5675 2.06762 14.9842 1.65087C15.401 1.23413 15.9662 1 16.5556 1H18.7778C19.3671 1 19.9324 1.23413 20.3491 1.65087C20.7659 2.06762 21 2.63285 21 3.22222V18.7778C21 19.3671 20.7659 19.9324 20.3491 20.3491C19.9324 20.7659 19.3671 21 18.7778 21H16.5556C15.9662 21 15.401 20.7659 14.9842 20.3491C14.5675 19.9324 14.3333 19.3671 14.3333 18.7778Z" stroke="white" stroke-width="2" stroke-linecap="round" stroke-linejoin="round"/>
</svg>
