<svg width="93" height="93" viewBox="0 0 93 93" fill="none" xmlns="http://www.w3.org/2000/svg">
<path d="M31.3333 81.8889V51.5556C31.3333 48.8739 30.2681 46.3021 28.3719 44.4059C26.4757 42.5097 23.9039 41.4444 21.2222 41.4444H11.1111C8.42948 41.4444 5.85768 42.5097 3.96148 44.4059C2.06527 46.3021 1 48.8739 1 51.5556V81.8889C1 84.5705 2.06527 87.1423 3.96148 89.0385C5.85768 90.9347 8.42948 92 11.1111 92H21.2222C23.9039 92 26.4757 90.9347 28.3719 89.0385C30.2681 87.1423 31.3333 84.5705 31.3333 81.8889ZM31.3333 81.8889V31.3333C31.3333 28.6517 32.3986 26.0799 34.2948 24.1837C36.191 22.2875 38.7628 21.2222 41.4444 21.2222H51.5556C54.2372 21.2222 56.809 22.2875 58.7052 24.1837C60.6014 26.0799 61.6667 28.6517 61.6667 31.3333V81.8889M31.3333 81.8889C31.3333 84.5705 32.3986 87.1423 34.2948 89.0385C36.191 90.9347 38.7628 92 41.4444 92H51.5556C54.2372 92 56.809 90.9347 58.7052 89.0385C60.6014 87.1423 61.6667 84.5705 61.6667 81.8889M61.6667 81.8889V11.1111C61.6667 8.42948 62.7319 5.85768 64.6281 3.96148C66.5243 2.06527 69.0961 1 71.7778 1H81.8889C84.5705 1 87.1423 2.06527 89.0385 3.96148C90.9347 5.85768 92 8.42948 92 11.1111V81.8889C92 84.5705 90.9347 87.1423 89.0385 89.0385C87.1423 90.9347 84.5705 92 81.8889 92H71.7778C69.0961 92 66.5243 90.9347 64.6281 89.0385C62.7319 87.1423 61.6667 84.5705 61.6667 81.8889Z" stroke="#314357" stroke-width="2" stroke-linecap="round" stroke-linejoin="round"/>
</svg>
